Coordinates
version=1
nRows=19
nColumns=24
inDegrees=yes

Units are S.I. units (second, meters, Newtons, ...)
Angles are in degrees.

endheader
time	pelvis_tilt	pelvis_list	pelvis_rotation	pelvis_tx	pelvis_ty	pelvis_tz	hip_flexion_r	hip_adduction_r	hip_rotation_r	knee_angle_r	ankle_angle_r	subtalar_angle_r	mtp_angle_r	hip_flexion_l	hip_adduction_l	hip_rotation_l	knee_angle_l	ankle_angle_l	subtalar_angle_l	mtp_angle_l	lumbar_extension	lumbar_bending	lumbar_rotation
      1.45000000	     18.98526328	    -10.46348197	      4.76399595	      0.19204069	      0.97112366	      0.01804133	    -17.12151661	     15.76293245	     -9.89614750	     -3.52641038	      5.60852628	      5.67799164	      5.03443214	     -6.61831487	    -17.22918835	     -7.21841424	    -63.56229020	     -1.55254389	     -1.84310579	     25.08979437	    -25.00035396	     11.31565640	      1.73885966
      1.45500000	     18.82639120	    -10.36550149	      4.84445394	      0.19688628	      0.97116127	      0.01813488	    -17.43443816	     15.72543124	     -9.83110090	     -3.22028278	      5.77128839	      5.72953601	      5.02807390	     -5.57222444	    -17.11772833	     -7.05389385	    -63.57022311	     -0.25349866	     -1.79225452	     25.10381811	    -24.89211181	     11.23251151	      1.69246608
      1.46000000	     18.65697560	    -10.27506142	      4.90963097	      0.20181088	      0.97117346	      0.01824883	    -17.76542509	     15.69503994	     -9.74034235	     -2.86832248	      5.91276602	      5.75134530	      5.00421566	     -4.55158001	    -17.00884516	     -6.94099281	    -63.48294673	      1.04980385	     -1.64909657	     25.00973741	    -24.76475501	     11.15022721	      1.63887782
      1.46500000	     18.51090807	    -10.18860541	      4.95285240	      0.20671335	      0.97119927	      0.01836397	    -18.12034526	     15.66005868	     -9.64156988	     -2.52353531	      6.01258507	      5.76939299	      4.95548510	     -3.59221706	    -16.88422699	     -6.86020564	    -63.30134884	      2.38808168	     -1.43932446	     24.73723029	    -24.66829749	     11.06410909	      1.64721014
      1.47000000	     18.43946064	    -10.02278995	      4.99595414	      0.21157942	      0.97134576	      0.01843166	    -18.56714534	     15.54600905	     -9.58329771	     -2.16343525	      6.14518581	      5.79174336	      4.95076992	     -2.76593671	    -16.63708630	     -6.76399722	    -62.97368128	      3.62950643	     -1.22171712	     24.76105024	    -24.66280638	     10.89674701	      1.63998401
      1.47500000	     18.34609745	     -9.88866268	      5.02359988	      0.21647752	      0.97142775	      0.01851919	    -18.99838285	     15.45730170	     -9.50479202	     -1.79076728	      6.24624059	      5.83940761	      4.94700375	     -1.94116920	    -16.42487004	     -6.71429921	    -62.57375438	      4.85710618	     -0.92507952	     24.80274428	    -24.62946420	     10.75622973	      1.65761087
      1.48000000	     18.25896465	     -9.74331959	      5.02878468	      0.22140465	      0.97150595	      0.01864570	    -19.44259376	     15.35328898	     -9.43409524	     -1.41553533	      6.33516611	      5.88206454	      4.94687529	     -1.16810894	    -16.19262967	     -6.71359980	    -62.07229641	      6.03593414	     -0.62894269	     24.87224172	    -24.60541164	     10.59222702	      1.67608255
      1.48500000	     18.19145494	     -9.61318932	      5.03721016	      0.22628069	      0.97157157	      0.01875587	    -19.91536171	     15.26363280	     -9.31453938	     -1.01806549	      6.42244838	      5.94237810	      4.94960718	     -0.43588565	    -15.96157319	     -6.68971347	    -61.48874769	      7.17950160	     -0.17968301	     24.92249638	    -24.60812703	     10.44607184	      1.73430158
      1.49000000	     18.12920935	     -9.47778280	      5.02168555	      0.23118765	      0.97162991	      0.01889019	    -20.40011252	     15.16074024	     -9.19030888	     -0.61850111	      6.49960161	      5.99834114	      4.95441653	      0.24618793	    -15.72233611	     -6.72238065	    -60.81053865	      8.26851957	      0.26902448	     24.94105614	    -24.61596952	     10.28587030	      1.80382757
      1.49500000	     18.07119987	     -9.32252665	      4.99234755	      0.23608290	      0.97168923	      0.01903678	    -20.88025821	     15.03216713	     -9.08566790	     -0.23902656	      6.57739655	      6.04932026	      4.96466741	      0.88198109	    -15.44920983	     -6.77492504	    -60.02805436	      9.28209398	      0.70947492	     24.97918662	    -24.63351391	     10.09731669	      1.88035238
      1.50000000	     18.00678118	     -9.16252491	      4.94451812	      0.24102038	      0.97172764	      0.01922065	    -21.35242049	     14.89325530	     -8.99382880	      0.13048265	      6.65085959	      6.10530399	      4.97697021	      1.48031824	    -15.17252652	     -6.87782922	    -59.14905195	     10.22025901	      1.12805553	     25.03177460	    -24.64143055	      9.89415505	      1.94854487
      1.50500000	     17.98202417	     -9.00034422	      4.88968770	      0.24592663	      0.97179335	      0.01938693	    -21.86795271	     14.74646751	     -8.86996491	      0.50158237	      6.72877498	      6.17245183	      4.99438225	      1.99710572	    -14.88877762	     -6.99812597	    -58.17546748	     11.08553466	      1.61544193	     25.06561620	    -24.69803642	      9.69039826	      2.06374825
      1.51000000	     17.96677854	     -8.82915871	      4.81761670	      0.25082292	      0.97185762	      0.01957593	    -22.38591456	     14.58346989	     -8.74086830	      0.85478715	      6.81225861	      6.23677433	      5.01634985	      2.46050795	    -14.58987389	     -7.15091598	    -57.10300215	     11.85956327	      2.05403059	     25.07824843	    -24.77111949	      9.46787431	      2.18724258
      1.51500000	     17.94874103	     -8.65189634	      4.73152281	      0.25575550	      0.97190239	      0.01979239	    -22.89405483	     14.40960121	     -8.62433333	      1.18907674	      6.90560153	      6.29984159	      5.04045601	      2.88219199	    -14.28548371	     -7.34354873	    -55.93549994	     12.54036277	      2.44194658	     25.08528165	    -24.83697251	      9.23127470	      2.30993856
      1.52000000	     18.00574676	     -8.45560062	      4.62828063	      0.26064560	      0.97204828	      0.01998117	    -23.48099387	     14.20352771	     -8.46405439	      1.51536625	      6.99097197	      6.38673587	      5.07015274	      3.16286458	    -13.95276769	     -7.56641307	    -54.64514359	     13.13802497	      2.82629027	     25.04518417	    -24.99383782	      8.97502913	      2.48701393
      1.52500000	     18.05866096	     -8.24697433	      4.50950106	      0.26562081	      0.97217466	      0.02021008	    -24.05927799	     13.98245427	     -8.34710123	      1.82437328	      7.08107325	      6.47636731	      5.10362226	      3.39458164	    -13.61655874	     -7.86176969	    -53.25536349	     13.64887835	      3.09097362	     24.96674727	    -25.13855611	      8.69483029	      2.63341357
      1.53000000	     18.10739502	     -8.02029652	      4.38748043	      0.27058618	      0.97228125	      0.02042191	    -24.61320608	     13.73802495	     -8.23672709	      2.09491605	      7.20815126	      6.54437077	      5.13549301	      3.59161963	    -13.25066963	     -8.16082515	    -51.76983138	     14.04343888	      3.34071686	     24.91341093	    -25.28004766	      8.39553521	      2.78006561
      1.53500000	     18.17669182	     -7.77324486	      4.24824184	      0.27556211	      0.97242174	      0.02063307	    -25.17613965	     13.46260647	     -8.12163948	      2.33489184	      7.34474951	      6.61647152	      5.16312723	      3.70824322	    -12.85792350	     -8.49954096	    -50.16829812	     14.33555052	      3.52141276	     24.87198052	    -25.44444183	      8.06946017	      2.92947954
      1.54000000	     18.27536342	     -7.50756125	      4.10038158	      0.28060466	      0.97258084	      0.02085585	    -25.77073264	     13.16657841	     -8.03234010	      2.56757848	      7.49693382	      6.69365141	      5.18510757	      3.73633764	    -12.45045628	     -8.89524128	    -48.46103727	     14.52542087	      3.63225866	     24.84157733	    -25.63546645	      7.71718236	      3.07304664
